<svg xmlns="http://www.w3.org/2000/svg" viewBox="0 0 1896.81 440.81"><defs><style>.cls-1{fill:#231f20;}.cls-2{fill:#3264ff;}</style></defs><title>Fichier 1</title><g id="Calque_2" data-name="Calque 2"><g id="Calque_1-2" data-name="Calque 1"><path class="cls-1" d="M7,205.57V0H52.25V205.57Z"/><path class="cls-1" d="M167.12,157.49H213c-13.87,33.28-41.31,53.32-73.27,53.32-44,0-79.29-36.37-79.29-82,0-45.93,35-82.6,78.39-82.6,45.22,0,79.6,36.37,79.6,84.14A60.06,60.06,0,0,1,217.17,143H104.11c2.11,17.26,15.37,28.67,33.16,28.67,11.16,0,18.09-2.78,27.74-12A13.54,13.54,0,0,1,167.12,157.49Zm6-45.31c-3-16-16.58-26.81-34.07-26.81s-30.15,9.86-33.77,26.81Z"/><path class="cls-1" d="M333.85,147h45.52c-8.74,37.6-41,63.8-79,63.8-45.22,0-80.8-36.37-80.8-82.6s35-82,79.59-82c39.5,0,72.06,26.2,79.9,64.72H333.54c-5.72-13.56-18.08-21.57-32.86-21.57-20.8,0-35.88,16.64-35.88,39.75,0,22.5,15.08,38.53,35.88,38.53C314.85,167.66,324.8,161.5,333.85,147Z"/><path class="cls-1" d="M377.56,129.44c0-48.08,34.37-83.21,81.41-83.21,46.73,0,81.4,35.13,81.4,82.29s-34.67,82.29-81.1,82.29C412.23,210.81,377.56,176.29,377.56,129.44Zm45.23-1.23c0,22.5,15.67,39.45,36.48,39.45,20.5,0,35.88-16.95,35.88-39.14,0-21.88-16-39.14-35.88-39.14C438.77,89.38,422.79,106.64,422.79,128.21Z"/><path class="cls-1" d="M548.81,205.57V51.47h42.81V67.8c9-14.48,22.31-21.57,41.31-21.57,19.59,0,33.77,8.94,43.71,27.43,10.86-17.88,27.44-27.43,47.94-27.43,15.38,0,28.65,5.24,38.9,15.41,13.86,13.56,16.58,23.73,16.58,59.79v84.14H734.83v-82c0-24.35-6.33-34.21-22.31-34.21-16.28,0-24.72,11.09-24.72,32.05v84.14H642.58V121.43c0-21-7.84-32.05-23.22-32.05-16.58,0-25.33,11.09-25.33,32.05v84.14Z"/><path class="cls-1" d="M797.85,257V51.47h42.51v17C852.12,53,866.59,46.23,888,46.23c43.42,0,73.87,34.83,73.87,83.52,0,46.23-31.66,81.06-73.57,81.06-19.29,0-33.16-5.86-45.22-19.42V257ZM841,127.9c0,22.19,16.58,39.76,38,39.76,21.1,0,37.69-16.95,37.69-39.14s-16.29-39.14-38-39.14C857.84,89.38,841,106.64,841,127.9Z"/><path class="cls-1" d="M1129.49,51.47v154.1H1087V188.92c-7.24,14.8-22.61,21.89-46.73,21.89-45.53,0-76.58-33.29-76.58-82.29,0-48.7,32-82.6,77.48-82.6,22.91,0,37.39,6.78,45.83,21.88V51.47Zm-120.6,77.05c0,22.19,16.58,39.14,37.69,39.14,22,0,37.69-16.64,37.69-39.45,0-22.19-16-38.83-38-38.83C1025.17,89.38,1008.89,106.33,1008.89,128.52Z"/><path class="cls-1" d="M1144.57,205.57V51.47h42.81V67.8c8.44-15.1,19-21.57,36.48-21.57h1.21V92.46c-25.93.62-35.58,8.32-35.58,28v85.07Z"/><path class="cls-1" d="M1385.76,51.47v154.1h-42.51V188.92c-7.23,14.8-22.61,21.89-46.73,21.89-45.53,0-76.58-33.29-76.58-82.29,0-48.7,32-82.6,77.49-82.6,22.91,0,37.38,6.78,45.82,21.88V51.47Zm-120.6,77.05c0,22.19,16.59,39.14,37.69,39.14,22,0,37.69-16.64,37.69-39.45,0-22.19-16-38.83-38-38.83C1281.45,89.38,1265.16,106.33,1265.16,128.52Z"/><path class="cls-1" d="M1450,0V51.47h21.71V86.29H1450V205.57h-45.22V86.29h-22V51.47h22V0Z"/><path class="cls-1" d="M1573.9,157.49h45.83c-13.87,33.28-41.31,53.32-73.27,53.32-44,0-79.29-36.37-79.29-82,0-45.93,35-82.6,78.39-82.6,45.22,0,79.59,36.37,79.59,84.14A60,60,0,0,1,1624,143H1510.89c2.11,17.26,15.37,28.67,33.16,28.67,11.16,0,18.09-2.78,27.74-12A13.54,13.54,0,0,1,1573.9,157.49Zm6-45.31c-3-16-16.58-26.81-34.07-26.81s-30.15,9.86-33.77,26.81Z"/><path class="cls-1" d="M1772.58,51.47v154.1h-42.81V189.23c-7.23,14.8-19.9,21.58-39.8,21.58-18.39,0-33.16-6.78-44-19.42-10.56-12.64-13.57-23.11-13.57-47.77V51.47h45.22v86c0,21.26,7.24,30.2,24.12,30.2,16.28,0,25.63-11.1,25.63-30.2v-86Z"/><path class="cls-1" d="M1787.66,205.57V51.47h42.81V67.8c8.44-15.1,19-21.57,36.48-21.57h1.21V92.46c-25.93.62-35.58,8.32-35.58,28v85.07Z"/><path class="cls-2" d="M164,281.47v154.1H122V418.92c-7.16,14.8-22.37,21.89-46.22,21.89-45,0-75.73-33.29-75.73-82.29,0-48.7,31.6-82.6,76.63-82.6,22.66,0,37,6.78,45.32,21.88V281.47Zm-119.27,77c0,22.19,16.4,39.14,37.27,39.14,21.77,0,37.27-16.64,37.27-39.45,0-22.19-15.8-38.83-37.57-38.83C60.82,319.38,44.72,336.33,44.72,358.52Z"/><path class="cls-2" d="M285.33,324.62H241.8c-.89-7.71-4.77-11.41-12.82-11.41-8.35,0-14,4-14,9.87,0,7.08,6.85,12.32,22.95,16.95,30.71,8.63,37,12,45.32,24.34a43.43,43.43,0,0,1,6.86,24c0,29.9-26.83,52.4-62,52.4-33.4,0-56.36-19.42-59.64-51.16h44.43c1.19,9.24,7.16,14.17,17,14.17,8.35,0,15.51-5.24,15.51-11.71,0-7.09-6.26-12.33-17.29-15.41l-26.24-7.09c-18.19-4.93-31.61-22.8-31.61-42.53,0-28.35,26.54-50.85,60.23-50.85C261.78,276.23,282.65,294.72,285.33,324.62Z"/><path class="cls-2" d="M403.1,324.62H359.57c-.9-7.71-4.77-11.41-12.82-11.41-8.35,0-14,4-14,9.87,0,7.08,6.86,12.32,23,16.95,30.71,8.63,37,12,45.32,24.34a43.51,43.51,0,0,1,6.86,24c0,29.9-26.83,52.4-62,52.4-33.39,0-56.35-19.42-59.63-51.16h44.43c1.19,9.24,7.15,14.17,17,14.17,8.35,0,15.51-5.24,15.51-11.71,0-7.09-6.27-12.33-17.3-15.41l-26.24-7.09c-18.18-4.93-31.6-22.8-31.6-42.53,0-28.35,26.54-50.85,60.23-50.85C379.54,276.23,400.42,294.72,403.1,324.62Z"/><path class="cls-2" d="M552.17,281.47v154.1H509.83V419.23c-7.15,14.8-19.67,21.58-39.35,21.58-18.19,0-32.8-6.78-43.53-19.42-10.44-12.64-13.42-23.11-13.42-47.77V281.47h44.72v86c0,21.26,7.16,30.2,23.85,30.2,16.11,0,25.35-11.1,25.35-30.2v-86Z"/><path class="cls-2" d="M567.08,435.57V281.47h42.33V297.8c8.35-15.1,18.79-21.57,36.08-21.57h1.19v46.23c-25.64.62-35.18,8.32-35.18,28v85.07Z"/><path class="cls-2" d="M805.6,281.47v154.1h-42V418.92c-7.16,14.8-22.36,21.89-46.22,21.89-45,0-75.73-33.29-75.73-82.29,0-48.7,31.61-82.6,76.63-82.6,22.66,0,37,6.78,45.32,21.88V281.47Zm-119.27,77c0,22.19,16.4,39.14,37.27,39.14,21.77,0,37.27-16.64,37.27-39.45,0-22.19-15.8-38.83-37.56-38.83C702.44,319.38,686.33,336.33,686.33,358.52Z"/><path class="cls-2" d="M820.5,435.57V281.47h42.34V297.8c10.14-15.1,22.06-21.57,40.85-21.57,15.8,0,30.41,5.85,39.95,15.72,11.63,11.71,14.91,22.19,14.91,47.15v96.47H913.82V351.43c0-22.19-7.15-32.05-23.25-32.05-17,0-25.35,10.17-25.35,30.2v86Z"/><path class="cls-2" d="M1078.7,377h45c-8.64,37.6-40.55,63.8-78.12,63.8-44.72,0-79.9-36.37-79.9-82.6s34.59-82,78.71-82c39.06,0,71.26,26.2,79,64.72h-45c-5.66-13.56-17.89-21.57-32.5-21.57-20.57,0-35.48,16.64-35.48,39.75,0,22.5,14.91,38.53,35.48,38.53C1059.92,397.66,1069.76,391.5,1078.7,377Z"/><path class="cls-2" d="M1227.47,387.49h45.32c-13.71,33.28-40.84,53.32-72.45,53.32-43.53,0-78.41-36.37-78.41-82,0-45.92,34.58-82.6,77.52-82.6,44.72,0,78.71,36.37,78.71,84.14A60.71,60.71,0,0,1,1277,373H1165.16c2.09,17.26,15.21,28.67,32.8,28.67,11,0,17.89-2.78,27.43-12A13.52,13.52,0,0,1,1227.47,387.49Zm6-45.31c-3-16-16.4-26.81-33.69-26.81s-29.82,9.86-33.4,26.81Z"/><path class="cls-1" d="M1333.61,388.41v47.16H1287.1V388.41Z"/><path class="cls-1" d="M1455.55,377h45c-8.64,37.6-40.54,63.8-78.11,63.8-44.73,0-79.91-36.37-79.91-82.6s34.59-82,78.72-82c39,0,71.25,26.2,79,64.72h-45c-5.67-13.56-17.89-21.57-32.5-21.57-20.58,0-35.49,16.64-35.49,39.75,0,22.5,14.91,38.53,35.49,38.53C1436.77,397.66,1446.61,391.5,1455.55,377Z"/><path class="cls-1" d="M1498.78,359.44c0-48.08,34-83.21,80.5-83.21,46.22,0,80.5,35.13,80.5,82.29s-34.28,82.29-80.2,82.29C1533.07,440.81,1498.78,406.29,1498.78,359.44Zm44.72-1.23c0,22.5,15.51,39.45,36.08,39.45,20.27,0,35.48-17,35.48-39.14,0-21.88-15.8-39.14-35.48-39.14C1559.31,319.38,1543.5,336.64,1543.5,358.21Z"/><path class="cls-1" d="M1668.13,435.57V281.47h42.33V297.8c9-14.48,22.07-21.57,40.85-21.57,19.38,0,33.39,8.94,43.23,27.43,10.74-17.88,27.14-27.43,47.41-27.43,15.21,0,28.32,5.24,38.46,15.41,13.72,13.56,16.4,23.73,16.4,59.79v84.14h-44.72v-82c0-24.35-6.26-34.21-22.07-34.21-16.1,0-24.44,11.09-24.44,32.05v84.14h-44.73V351.43c0-21-7.75-32.05-23-32.05-16.39,0-25,11.09-25,32.05v84.14Z"/></g></g></svg>